# xmcd CD database file
#
# Track frame offsets:
#	150
#	12207
#	55905
#	71704
#	87146
#	114903
#	155797
#	185086
#	194860
#	210425
#	224689
#	235283
#	263970
#	283298
#
# Disc length: 4107 seconds
#
# Revision: 0
# Processed by: cddbd v1.5PL3 Copyright (c) Steve Scherf et al.
# Submitted via: CDex 1.51
#
DISCID=de10090e
DTITLE=Fasteau, Kali - Comraderie
DYEAR=1998
DGENRE=Jazz
TTITLE0=Blessings
TTITLE1=Joyful Blues
TTITLE2=Hopes Become Real
TTITLE3=Bayou Dream
TTITLE4=Whispersong
TTITLE5=Tender Optimism
TTITLE6=Ethiopia
TTITLE7=Doubts Vanish
TTITLE8=Rhapsody With Few
TTITLE9=Transpersonal
TTITLE10=Moonlight In Motion
TTITLE11=Evening On The Ganges
TTITLE12=Ready Room
TTITLE13=A Gift
EXTD=YEAR: 1998
EXTT0=
EXTT1=
EXTT2=
EXTT3=
EXTT4=
EXTT5=
EXTT6=
EXTT7=
EXTT8=
EXTT9=
EXTT10=
EXTT11=
EXTT12=
EXTT13=
PLAYORDER=
